<?xml version="1.0" encoding="UTF-8" standalone="no"?>
<!DOCTYPE svg PUBLIC "-//W3C//DTD SVG 1.1//EN" "http://www.w3.org/Graphics/SVG/1.1/DTD/svg11.dtd">
<svg width="100%" height="100%" viewBox="0 0 75 75" version="1.1" xmlns="http://www.w3.org/2000/svg" xmlns:xlink="http://www.w3.org/1999/xlink" xml:space="preserve" style="fill-rule:evenodd;clip-rule:evenodd;stroke-linejoin:round;stroke-miterlimit:1.41421;">
    <path d="M37.5,2.327C56.912,2.327 72.673,18.088 72.673,37.5C72.673,56.912 56.912,72.673 37.5,72.673C18.088,72.673 2.327,56.912 2.327,37.5C2.327,18.088 18.088,2.327 37.5,2.327ZM58.016,29.759C57.832,33.765 55.04,39.25 49.639,46.212C44.055,53.484 39.331,57.119 35.466,57.119C33.073,57.119 31.046,54.906 29.391,50.476C28.286,46.417 27.182,42.357 26.076,38.298C24.847,33.871 23.529,31.654 22.12,31.654C21.813,31.654 20.738,32.302 18.897,33.593L16.965,31.098C18.991,29.314 20.991,27.53 22.958,25.743C25.661,23.403 27.691,22.172 29.044,22.047C32.24,21.74 34.207,23.929 34.946,28.615C35.744,33.671 36.296,36.815 36.606,38.046C37.528,42.241 38.541,44.335 39.649,44.335C40.509,44.335 41.799,42.975 43.522,40.255C45.241,37.533 46.162,35.463 46.287,34.041C46.532,31.693 45.61,30.515 43.522,30.515C42.538,30.515 41.524,30.742 40.481,31.19C42.5,24.566 46.357,21.348 52.049,21.532C56.269,21.656 58.259,24.398 58.016,29.759Z" style="fill:white;fill-opacity:0.901961;"/>
</svg>
