<?xml version="1.0" encoding="UTF-8" standalone="no"?>
<!DOCTYPE svg PUBLIC "-//W3C//DTD SVG 1.1//EN" "http://www.w3.org/Graphics/SVG/1.1/DTD/svg11.dtd">
<svg width="100%" height="100%" viewBox="0 0 600 600" version="1.1" xmlns="http://www.w3.org/2000/svg" xmlns:xlink="http://www.w3.org/1999/xlink" xml:space="preserve" style="fill-rule:evenodd;clip-rule:evenodd;stroke-linejoin:round;stroke-miterlimit:1.41421;">
    <g transform="matrix(20.4756,0,0,20.4756,28,28)">
        <clipPath id="_clip1">
            <path d="M11.075,15.986L10.849,19.373C11.181,19.373 11.328,19.221 11.513,19.041L13.108,17.489L16.428,19.942C17.039,20.279 17.48,20.104 17.632,19.374L19.811,9.105C20.034,8.211 19.47,7.805 18.886,8.071L6.09,13.005C5.216,13.355 5.221,13.842 5.931,14.059L9.214,15.084L16.817,10.288C17.175,10.071 17.505,10.188 17.234,10.427L11.075,15.986L11.075,15.986ZM13.284,26.568C5.947,26.568 0,20.621 0,13.284C0,5.948 5.947,0 13.284,0C20.621,0 26.568,5.948 26.568,13.284C26.568,20.621 20.621,26.568 13.284,26.568Z"/>
        </clipPath>
        <g clip-path="url(#_clip1)">
            <rect x="-5" y="-5" width="36.568" height="36.568" style="fill:rgb(91,75,73);fill-rule:nonzero;"/>
        </g>
    </g>
</svg>
